<svg xmlns="http://www.w3.org/2000/svg" width="64" height="64" viewBox="0 0 1024 1024"><circle fill="#52D493" cx="512" cy="512" r="512"/><path fill="#FA1E47" d="M736 176H544c0 22.44 0 43.73.03 64H640c53 0 96 42.98 96 96 0 53-42.98 96-96 96h-93.04c1.07 23.43 2.51 44.63 4.48 64h120.58c123.41 0 199.77 133.83 138.47 240l-80 138.56c-41.97 72.69-141.92 85.86-201.27 26.51l-96-96 45.25-45.25 96 96c30.4 30.4 80.08 22.58 100.77-13.26l80-138.56c36.33-62.93-8.54-144-83.22-144H561.35c15.57 69.74 45.14 113.24 101.28 169.38l-45.25 45.25c-60.28-60.28-147.93-98.66-225-70.81C339.11 723.08 305 769.75 286.25 826l-60.5-20c25.19-75.59 73-136.2 144.88-162.18 47.34-17.1 98.82-16.57 148-2.24-10.55-24.28-18.21-50.72-23.79-81.58H351.99c-70.69 0-128-57.31-128-128V240c0-70.69 57.31-128 128-128h384v64zm-256 0H352c-35.36 0-64 28.64-64 64v192c0 35.36 28.64 64 64 64h134.62c-1.71-19.6-2.98-40.82-3.92-64H320v-64h160.93c-.35-20.02-.56-41.31-.7-64H320v-64h160.02c-.03-20.35-.03-41.62-.03-64zm160 128h-95.75c.15 22.8.38 44.09.76 64h95c17.68 0 32-14.32 32-32s-14.32-32-32-32z"/></svg>