<?xml version="1.0" encoding="UTF-8"?>
<svg xmlns="http://www.w3.org/2000/svg" width="64" height="64" viewBox="0 0 1024 1024">
  <g>
    <circle fill="#52D493" cx="512" cy="512" r="512"/>
    <path fill="#FA1E47" d="M736 176l-192 0c0,22.44 0,43.73 0.03,64l95.97 0c53,0 96,42.98 96,96 0,53 -42.98,96 -96,96l-93.04 0c1.07,23.43 2.51,44.63 4.48,64l120.58 0c123.41,0 199.77,133.83 138.47,240l-80 138.56c-41.97,72.69 -141.92,85.86 -201.27,26.51l-96 -96 45.25 -45.25 96 96c30.4,30.4 80.08,22.58 100.77,-13.26l80 -138.56c36.33,-62.93 -8.54,-144 -83.22,-144l-110.67 0c15.57,69.74 45.14,113.24 101.28,169.38l-45.25 45.25c-60.28,-60.28 -147.93,-98.66 -225,-70.81 -53.27,19.26 -87.38,65.93 -106.13,122.18l-60.5 -20c25.19,-75.59 73,-136.2 144.88,-162.18 47.34,-17.1 98.82,-16.57 148,-2.24 -10.55,-24.28 -18.21,-50.72 -23.79,-81.58l-142.85 0c-70.69,0 -128,-57.31 -128,-128l0 -192c0,-70.69 57.31,-128 128,-128l384 0 0 64zm-256 0l-128 0c-35.36,0 -64,28.64 -64,64l0 192c0,35.36 28.64,64 64,64l134.62 0c-1.71,-19.6 -2.98,-40.82 -3.92,-64l-162.7 0 0 -64 160.93 0c-0.35,-20.02 -0.56,-41.31 -0.7,-64l-160.23 0 0 -64 160.02 0c-0.03,-20.35 -0.03,-41.62 -0.03,-64zm160 128l-95.75 0c0.15,22.8 0.38,44.09 0.76,64l95 0c17.68,0 32,-14.32 32,-32 0,-17.68 -14.32,-32 -32,-32z"/>
  </g>
</svg>
